# xmcd
# Copyright (C) 1995-1998 Ti Kan
#
# Track frame offsets:
#       150
#       20854
#       33963
#       48310
#       61773
#       73978
#       92732
#       105111
#       120055
#       134455
#       148083
#       162616
#       176221
#       190546
#
# Disc length: 2765 seconds
#
# Revision: 0
# Processed by: cddbd v1.5.2PL0 Copyright (c) Steve Scherf et al.
# Submitted via: CD-Import v1.0
#
DISCID=bf0acb0e
DTITLE=Zz Hill - Am I Groovin' You? - Great R&b Hits
DYEAR=1900
DGENRE=
TTITLE0=Am I Groovin' You
TTITLE1=Ain't Nothing You Can Do
TTITLE2=I Don't Need Half A Love
TTITLE3=Let Them Talk
TTITLE4=I Keep On Lovin' You
TTITLE5=I Created A Monster
TTITLE6=Can I Get A Witness
TTITLE7=Dream Don't Let Me Down
TTITLE8=Snap Your Fingers
TTITLE9=Look What You've Done
TTITLE10=I've Got To Get You Back
TTITLE11=You Love Makes Me Feel Good
TTITLE12=Bad Mouth And Gossip
TTITLE13=That Ain't The Way To Make Love
EXTD=
EXTT0=
EXTT1=
EXTT2=
EXTT3=
EXTT4=
EXTT5=
EXTT6=
EXTT7=
EXTT8=
EXTT9=
EXTT10=
EXTT11=
EXTT12=
EXTT13=
PLAYORDER=
